<svg xmlns="http://www.w3.org/2000/svg" viewBox="0 0 60 60" xml:space="preserve">
  <path d="M59 10H34v2h24v46H2V12h24v-2H1c-.6 0-1 .4-1 1v48c0 .6.4 1 1 1h58c.6 0 1-.4 1-1V11c0-.6-.4-1-1-1"/>
  <path d="M0 0v2h29v14H7c-.6 0-1 .4-1 1v18c0 .6.4 1 1 1h46c.6 0 1-.4 1-1V17c0-.6-.4-1-1-1H31V2h29V0zm52 34H8V18h44z"/>
  <path d="M39 31h2c1.2 0 2-.8 2-2v-2c0-1.2-.8-2-2-2h-2v-2h2v1h2v-1c0-1.2-.8-2-2-2h-2c-1.2 0-2 .8-2 2v2c0 1.2.8 2 2 2h2v2h-2v-1h-2v1c0 1.2.8 2 2 2m-11 0h4c1.2 0 2-.8 2-2v-6c0-1.2-.8-2-2-2h-4c-.6 0-1 .4-1 1v8c0 .6.4 1 1 1m1-8h3l.1 6H29zm-10 5h3v3h2v-9c0-.6-.4-1-1-1h-5c-.6 0-1 .4-1 1v9h2zm3-5v3h-3v-3zm24 2h2v2h-2zm-34 0h2v2h-2zm42 15c0-.6-.4-1-1-1H7c-.6 0-1 .4-1 1v8c0 .6.4 1 1 1h46c.6 0 1-.4 1-1zm-2 7H8v-6h44zM6 53h2v2H6zm4 0h2v2h-2zm4 0h2v2h-2zm30 0h2v2h-2zm-26 0h24v2H18zm30 0h2v2h-2zm4 0h2v2h-2z"/>
</svg>
