<svg width="800" height="800" viewBox="0 0 64 64" xml:space="preserve" xmlns="http://www.w3.org/2000/svg">
  <path d="M28 57h8v2h-8z"/>
  <path d="M58 11h-6V6c0-2.757-2.243-5-5-5H17c-2.757 0-5 2.243-5 5v25H6c-2.757 0-5 2.243-5 5v20.805L10.287 51H12v7c0 2.757 2.243 5 5 5h30c2.757 0 5-2.243 5-5V31h1.713L63 36.805V16c0-2.757-2.243-5-5-5M17 3h30c1.654 0 3 1.346 3 3v1H14V6c0-1.654 1.346-3 3-3M9.713 49 3 53.195V36c0-1.654 1.346-3 3-3h22c1.654 0 3 1.346 3 3v10c0 1.654-1.346 3-3 3zM47 61H17c-1.654 0-3-1.346-3-3v-3h36v3c0 1.654-1.346 3-3 3m3-8H14v-2h14c2.757 0 5-2.243 5-5V36c0-2.757-2.243-5-5-5H14V9h36v2H36c-2.757 0-5 2.243-5 5v10c0 2.757 2.243 5 5 5h14zm11-19.805L54.287 29H36c-1.654 0-3-1.346-3-3V16c0-1.654 1.346-3 3-3h22c1.654 0 3 1.346 3 3z"/>
  <path d="M47 18c-1.654 0-3 1.346-3 3s1.346 3 3 3 3-1.346 3-3-1.346-3-3-3m0 4c-.551 0-1-.449-1-1s.449-1 1-1 1 .449 1 1-.449 1-1 1m8-4c-1.654 0-3 1.346-3 3s1.346 3 3 3 3-1.346 3-3-1.346-3-3-3m0 4c-.551 0-1-.449-1-1s.449-1 1-1 1 .449 1 1-.449 1-1 1m-16-4c-1.654 0-3 1.346-3 3s1.346 3 3 3 3-1.346 3-3-1.346-3-3-3m0 4c-.551 0-1-.449-1-1s.449-1 1-1 1 .449 1 1-.449 1-1 1M23 41.184V41c0-3.309-2.691-6-6-6s-6 2.691-6 6v.184A3 3 0 0 0 9 44c0 1.654 1.346 3 3 3h3v-6h-2c0-2.206 1.794-4 4-4s4 1.794 4 4h-2v6h3c1.654 0 3-1.346 3-3a3 3 0 0 0-2-2.816M13 45h-1a1.001 1.001 0 0 1 0-2h1zm9 0h-1v-2h1a1.001 1.001 0 0 1 0 2m13-5h2v2h-2zm4 0h2v2h-2zm4 0h2v2h-2zM19 20h2v2h-2zm4 0h2v2h-2zm4 0h2v2h-2z"/>
</svg>
