<svg height="800" width="800" xmlns="http://www.w3.org/2000/svg" viewBox="0 0 512 512" xml:space="preserve">
  <path d="M485.083 36.653H26.917C12.075 36.653 0 48.728 0 63.571V448.43c0 14.842 12.075 26.917 26.917 26.917h458.166c14.842 0 26.917-12.075 26.917-26.917V63.571c0-14.843-12.075-26.918-26.917-26.918M127.141 53.834h331.025v19.472H127.141zm-36.653 0h19.472v19.472H90.488zm-36.654 0h19.472v19.472H53.834zm-36.653 9.737c0-5.369 4.367-9.736 9.736-9.736h9.736v19.472H17.181zM494.819 448.43c0 5.369-4.367 9.736-9.736 9.736H26.917c-5.369 0-9.736-4.367-9.736-9.736V90.488h477.638zm0-375.124h-19.472V53.834h9.736c5.369 0 9.736 4.367 9.736 9.736z"/>
  <path d="M466.756 109.96H45.244a8.591 8.591 0 0 0 0 17.182h421.512a8.591 8.591 0 0 0 0-17.182m-137.449 54.98H310.98c-7.907 0-14.617 5.198-16.907 12.353-73.698 43.017-153.528 50.3-176.506 51.508-9.404.496-16.77 8.28-16.77 17.724v37.276c0 9.444 7.366 17.228 16.77 17.723 4.579.241 11.426.725 20.023 1.684l25.813 94.901c2.097 7.71 9.142 13.094 17.132 13.094h29.617l.028.002.033-.002h9.135a8.591 8.591 0 0 0 0-17.182h-2.601l-21.958-80.51c30.325 7.555 65.45 19.772 99.284 39.52 2.291 7.156 9.002 12.353 16.907 12.353h18.327c9.79 0 17.754-7.964 17.754-17.754V182.69c-.001-9.786-7.965-17.75-17.754-17.75M137.45 285.916c-8.077-.864-14.548-1.316-18.981-1.55-.29-.015-.491-.247-.491-.565v-37.276c0-.317.202-.55.491-.566 4.433-.234 10.904-.686 18.981-1.55zm61.485 108.106h-18.402a.574.574 0 0 1-.553-.423l-23.912-87.914a446 446 0 0 1 19.741 3.542zm130.944-46.389a.574.574 0 0 1-.573.573H310.98a.574.574 0 0 1-.573-.573V246.838a8.591 8.591 0 0 0-17.182 0v86.016c-50.866-27.553-103.249-39.544-138.595-44.75v-45.881c35.346-5.206 87.73-17.197 138.595-44.75v12.712a8.591 8.591 0 0 0 17.182 0v-27.491c0-.316.257-.573.573-.573h18.327c.316 0 .573.257.573.573zm100.224-91.06h-54.98a8.591 8.591 0 0 0 0 17.182h54.98a8.591 8.591 0 0 0 0-17.182m-10.643-50.23a8.59 8.59 0 0 0-11.525-3.842l-36.653 18.327a8.59 8.59 0 0 0 3.848 16.275 8.6 8.6 0 0 0 3.835-.908l36.653-18.327a8.59 8.59 0 0 0 3.842-11.525m-3.842 106.117-36.653-18.327a8.59 8.59 0 0 0-7.683 15.367l36.653 18.327a8.59 8.59 0 0 0 11.525-3.843 8.59 8.59 0 0 0-3.842-11.524"/>
</svg>
