<svg height="800" width="800" xmlns="http://www.w3.org/2000/svg" viewBox="0 0 316.89 316.89" xml:space="preserve">
  <path d="M182.47 212.195c0-.754.036-1.5.057-2.25H38.5c-21.229 0-38.5 17.271-38.5 38.5s17.271 38.5 38.5 38.5h199.493c-32.088-9.705-55.523-39.537-55.523-74.75M81.5 258.445h-35c-5.514 0-10-4.486-10-10s4.486-10 10-10h35c5.514 0 10 4.486 10 10s-4.486 10-10 10m-43-61.5h145.476c7.114-35.78 38.743-62.837 76.581-62.837 9.54 0 18.682 1.727 27.139 4.872-6.697-11.378-19.066-19.035-33.196-19.035h-216c-21.229 0-38.5 17.271-38.5 38.5s17.271 38.5 38.5 38.5m8-48.5h35c5.514 0 10 4.486 10 10s-4.486 10-10 10h-35c-5.514 0-10-4.486-10-10s4.486-10 10-10m-8-41.5h216c21.228 0 38.5-17.271 38.5-38.5s-17.272-38.5-38.5-38.5h-216c-21.229 0-38.5 17.271-38.5 38.5s17.271 38.5 38.5 38.5m199-51.25c7.03 0 12.75 5.72 12.75 12.75s-5.72 12.75-12.75 12.75-12.75-5.72-12.75-12.75 5.72-12.75 12.75-12.75m-191 2.75h35c5.514 0 10 4.486 10 10s-4.486 10-10 10h-35c-5.514 0-10-4.486-10-10s4.486-10 10-10"/>
  <path d="M260.557 155.862c-31.112 0-56.333 25.221-56.333 56.333s25.221 56.333 56.333 56.333 56.332-25.221 56.332-56.333-25.22-56.333-56.332-56.333m30.096 44.399-35.654 35.653a3.97 3.97 0 0 1-2.828 1.172 3.97 3.97 0 0 1-2.829-1.172l-17.88-17.88a3.97 3.97 0 0 1-1.172-2.828c0-1.068.416-2.073 1.172-2.829l3.535-3.535a3.97 3.97 0 0 1 2.828-1.172c1.068 0 2.073.416 2.828 1.171l11.518 11.517 29.291-29.289a3.97 3.97 0 0 1 2.828-1.172c1.069 0 2.074.417 2.829 1.172l3.535 3.535a3.97 3.97 0 0 1 1.172 2.828 3.98 3.98 0 0 1-1.173 2.829"/>
</svg>
